<?xml version="1.0" encoding="utf-8" standalone="no"?>
<!DOCTYPE svg PUBLIC "-//W3C//DTD SVG 1.1//EN"
  "http://www.w3.org/Graphics/SVG/1.1/DTD/svg11.dtd">
<!-- Created with matplotlib (https://matplotlib.org/) -->
<svg height="504pt" version="1.1" viewBox="0 0 504 504" width="504pt" xmlns="http://www.w3.org/2000/svg" xmlns:xlink="http://www.w3.org/1999/xlink">
 <defs>
  <style type="text/css">
*{stroke-linecap:butt;stroke-linejoin:round;}
  </style>
 </defs>
 <g id="figure_1">
  <g id="patch_1">
   <path d="M 0 504 
L 504 504 
L 504 0 
L 0 0 
z
" style="fill:#ffffff;"/>
  </g>
  <g id="axes_1">
   <g id="LineCollection_1">
    <path clip-path="url(#pc196a311bd)" d="M 86.220407 373.719872 
L 154.94768 410.08402 
" style="fill:none;stroke:#000000;"/>
    <path clip-path="url(#pc196a311bd)" d="M 86.220407 373.719872 
L 80.754545 383.347337 
" style="fill:none;stroke:#000000;"/>
    <path clip-path="url(#pc196a311bd)" d="M 86.220407 373.719872 
L 127.547077 302.459693 
" style="fill:none;stroke:#000000;"/>
    <path clip-path="url(#pc196a311bd)" d="M 261.009166 78.12 
L 127.547077 302.459693 
" style="fill:none;stroke:#000000;"/>
    <path clip-path="url(#pc196a311bd)" d="M 360.297737 111.773777 
L 345.230969 124.930371 
" style="fill:none;stroke:#000000;"/>
    <path clip-path="url(#pc196a311bd)" d="M 360.297737 111.773777 
L 336.152886 88.340359 
" style="fill:none;stroke:#000000;"/>
    <path clip-path="url(#pc196a311bd)" d="M 360.297737 111.773777 
L 389.623274 150.904763 
" style="fill:none;stroke:#000000;"/>
    <path clip-path="url(#pc196a311bd)" d="M 80.754545 383.347337 
L 149.481818 421.236069 
" style="fill:none;stroke:#000000;"/>
    <path clip-path="url(#pc196a311bd)" d="M 158.892607 325.328451 
L 158.559902 300.088118 
" style="fill:none;stroke:#000000;"/>
    <path clip-path="url(#pc196a311bd)" d="M 158.892607 325.328451 
L 159.843191 399.778963 
" style="fill:none;stroke:#000000;"/>
    <path clip-path="url(#pc196a311bd)" d="M 158.892607 325.328451 
L 136.743983 326.260141 
" style="fill:none;stroke:#000000;"/>
    <path clip-path="url(#pc196a311bd)" d="M 136.743983 326.260141 
L 114.9043 364.402971 
" style="fill:none;stroke:#000000;"/>
    <path clip-path="url(#pc196a311bd)" d="M 290.120822 175.185173 
L 289.241532 150.5942 
" style="fill:none;stroke:#000000;"/>
    <path clip-path="url(#pc196a311bd)" d="M 290.120822 175.185173 
L 291.285289 206.947337 
" style="fill:none;stroke:#000000;"/>
    <path clip-path="url(#pc196a311bd)" d="M 290.120822 175.185173 
L 228.998227 176.145096 
" style="fill:none;stroke:#000000;"/>
    <path clip-path="url(#pc196a311bd)" d="M 291.285289 206.947337 
L 292.449755 239.35886 
" style="fill:none;stroke:#000000;"/>
    <path clip-path="url(#pc196a311bd)" d="M 291.285289 206.947337 
L 215.618748 208.528387 
" style="fill:none;stroke:#000000;"/>
    <path clip-path="url(#pc196a311bd)" d="M 292.449755 239.35886 
L 293.70928 273.633764 
" style="fill:none;stroke:#000000;"/>
    <path clip-path="url(#pc196a311bd)" d="M 292.449755 239.35886 
L 201.264919 239.979987 
" style="fill:none;stroke:#000000;"/>
    <path clip-path="url(#pc196a311bd)" d="M 159.843191 399.778963 
L 154.94768 410.08402 
" style="fill:none;stroke:#000000;"/>
    <path clip-path="url(#pc196a311bd)" d="M 158.559902 300.088118 
L 174.19702 275.186581 
" style="fill:none;stroke:#000000;"/>
    <path clip-path="url(#pc196a311bd)" d="M 174.19702 275.186581 
L 293.70928 273.633764 
" style="fill:none;stroke:#000000;"/>
    <path clip-path="url(#pc196a311bd)" d="M 289.241532 150.5942 
L 345.230969 124.930371 
" style="fill:none;stroke:#000000;"/>
    <path clip-path="url(#pc196a311bd)" d="M 154.94768 410.08402 
L 149.481818 421.236069 
" style="fill:none;stroke:#000000;"/>
    <path clip-path="url(#pc196a311bd)" d="M 406.852622 430.92 
L 390.597624 188.595864 
" style="fill:none;stroke:#000000;"/>
    <path clip-path="url(#pc196a311bd)" d="M 406.852622 430.92 
L 420.873746 430.609437 
" style="fill:none;stroke:#000000;"/>
    <path clip-path="url(#pc196a311bd)" d="M 390.597624 188.595864 
L 380.378838 159.628771 
" style="fill:none;stroke:#000000;"/>
    <path clip-path="url(#pc196a311bd)" d="M 380.378838 159.628771 
L 345.230969 124.930371 
" style="fill:none;stroke:#000000;"/>
    <path clip-path="url(#pc196a311bd)" d="M 380.378838 159.628771 
L 389.623274 150.904763 
" style="fill:none;stroke:#000000;"/>
    <path clip-path="url(#pc196a311bd)" d="M 400.222293 168.239846 
L 403.644398 189.838118 
" style="fill:none;stroke:#000000;"/>
    <path clip-path="url(#pc196a311bd)" d="M 400.222293 168.239846 
L 417.855639 168.013982 
" style="fill:none;stroke:#000000;"/>
    <path clip-path="url(#pc196a311bd)" d="M 400.222293 168.239846 
L 389.623274 150.904763 
" style="fill:none;stroke:#000000;"/>
    <path clip-path="url(#pc196a311bd)" d="M 435.845455 429.98831 
L 417.998227 178.940166 
" style="fill:none;stroke:#000000;"/>
    <path clip-path="url(#pc196a311bd)" d="M 435.845455 429.98831 
L 420.873746 430.609437 
" style="fill:none;stroke:#000000;"/>
    <path clip-path="url(#pc196a311bd)" d="M 417.998227 178.940166 
L 417.855639 168.013982 
" style="fill:none;stroke:#000000;"/>
    <path clip-path="url(#pc196a311bd)" d="M 403.644398 189.838118 
L 420.873746 430.609437 
" style="fill:none;stroke:#000000;"/>
    <path clip-path="url(#pc196a311bd)" d="M 402.574991 139.216287 
L 389.623274 150.904763 
" style="fill:none;stroke:#000000;"/>
    <path clip-path="url(#pc196a311bd)" d="M 402.574991 139.216287 
L 345.967673 81.451498 
" style="fill:none;stroke:#000000;"/>
    <path clip-path="url(#pc196a311bd)" d="M 402.574991 139.216287 
L 417.689287 154.659757 
" style="fill:none;stroke:#000000;"/>
    <path clip-path="url(#pc196a311bd)" d="M 417.855639 168.013982 
L 417.689287 154.659757 
" style="fill:none;stroke:#000000;"/>
   </g>
   <g id="LineCollection_2">
    <path clip-path="url(#pc196a311bd)" d="M 158.892607 325.328451 
L 406.852622 430.92 
" style="fill:none;stroke:#000000;stroke-dasharray:3.7,1.6;stroke-dashoffset:0;"/>
   </g>
   <g id="text_1">
    <g id="patch_2">
     <path clip-path="url(#pc196a311bd)" d="M 254.048912 387.413409 
L 299.234829 403.607016 
Q 306.012717 406.036058 308.441758 399.25817 
L 316.045162 378.04197 
Q 318.474203 371.264082 311.696316 368.835041 
L 266.510399 352.641434 
Q 259.732511 350.212393 257.30347 356.990281 
L 249.700066 378.206481 
Q 247.271025 384.984368 254.048912 387.413409 
z
" style="fill:#ffffff;stroke:#ffffff;stroke-linejoin:miter;"/>
    </g>
    <g clip-path="url(#pc196a311bd)">
     <!-- 挿入 -->
     <defs>
      <path d="M 61.234375 49.609375 
L 61.234375 56.59375 
L 36.671875 56.59375 
L 36.671875 62.796875 
L 61.234375 62.796875 
L 61.234375 71.484375 
Q 52.734375 70.796875 41.703125 70.40625 
L 39.3125 76.515625 
Q 64.703125 77.25 85.015625 81.109375 
L 89.703125 74.90625 
Q 80.8125 73.296875 68.109375 71.96875 
L 68.109375 62.796875 
L 94.96875 62.796875 
L 94.96875 56.59375 
L 68.109375 56.59375 
L 68.109375 49.609375 
L 89.796875 49.609375 
L 89.796875 8.5 
L 83.296875 8.5 
L 83.296875 14.5 
L 68.109375 14.5 
L 68.109375 -6.984375 
L 61.234375 -6.984375 
L 61.234375 14.5 
L 46.484375 14.5 
L 46.484375 8.015625 
L 39.984375 8.015625 
L 39.984375 49.609375 
z
M 61.421875 43.796875 
L 46.484375 43.796875 
L 46.484375 35.015625 
L 61.421875 35.015625 
z
M 67.921875 43.796875 
L 67.921875 35.015625 
L 83.296875 35.015625 
L 83.296875 43.796875 
z
M 61.421875 29.296875 
L 46.484375 29.296875 
L 46.484375 20.3125 
L 61.421875 20.3125 
z
M 67.921875 29.296875 
L 67.921875 20.3125 
L 83.296875 20.3125 
L 83.296875 29.296875 
z
M 18.5 62.796875 
L 18.5 83.015625 
L 25.203125 83.015625 
L 25.203125 62.796875 
L 34.28125 62.796875 
L 34.28125 56.296875 
L 25.203125 56.296875 
L 25.203125 37.3125 
Q 28.078125 38.03125 36.28125 40.71875 
L 36.671875 34.90625 
Q 29.78125 32.171875 25.203125 30.8125 
L 25.203125 0.984375 
Q 25.203125 -3.328125 23.296875 -4.78125 
Q 21.6875 -6.109375 17 -6.109375 
Q 12.453125 -6.109375 8.203125 -5.515625 
L 6.984375 1.703125 
Q 11.8125 0.78125 15.28125 0.78125 
Q 18.5 0.78125 18.5 3.609375 
L 18.5 28.71875 
Q 11.53125 26.65625 6.296875 25.390625 
L 4.296875 32.078125 
Q 12.703125 33.84375 18.5 35.40625 
L 18.5 56.296875 
L 5.8125 56.296875 
L 5.8125 62.796875 
z
" id="IPAexGothic-25407"/>
      <path d="M 51.171875 48.09375 
Q 43.84375 9.671875 12.796875 -5.21875 
L 6.984375 1.421875 
Q 45.84375 18.0625 46.875 71.09375 
L 23 71.09375 
L 23 77.875 
L 55.078125 77.875 
L 55.078125 73.875 
Q 55.078125 47.703125 64.3125 31.890625 
Q 73.96875 15.1875 94.09375 4.296875 
L 88.28125 -3.125 
Q 57.765625 16.3125 51.171875 48.09375 
z
" id="IPAexGothic-20837"/>
     </defs>
     <g transform="translate(258.016346 376.34286)rotate(-340.283473)scale(0.24 -0.24)">
      <use xlink:href="#IPAexGothic-25407"/>
      <use x="100" xlink:href="#IPAexGothic-20837"/>
     </g>
    </g>
   </g>
   <g id="PathCollection_1">
    <defs>
     <path d="M 0 5 
C 1.326016 5 2.597899 4.473168 3.535534 3.535534 
C 4.473168 2.597899 5 1.326016 5 0 
C 5 -1.326016 4.473168 -2.597899 3.535534 -3.535534 
C 2.597899 -4.473168 1.326016 -5 0 -5 
C -1.326016 -5 -2.597899 -4.473168 -3.535534 -3.535534 
C -4.473168 -2.597899 -5 -1.326016 -5 0 
C -5 1.326016 -4.473168 2.597899 -3.535534 3.535534 
C -2.597899 4.473168 -1.326016 5 0 5 
z
" id="C0_0_4ffa46142c"/>
    </defs>
    <g clip-path="url(#pc196a311bd)">
     <use style="fill:#3d3b6f;stroke:#3d3b6f;" x="86.220407" xlink:href="#C0_0_4ffa46142c" y="373.719872"/>
    </g>
    <g clip-path="url(#pc196a311bd)">
     <use style="fill:#3d3b6f;stroke:#3d3b6f;" x="261.009166" xlink:href="#C0_0_4ffa46142c" y="78.12"/>
    </g>
    <g clip-path="url(#pc196a311bd)">
     <use style="fill:#3d3b6f;stroke:#3d3b6f;" x="127.547077" xlink:href="#C0_0_4ffa46142c" y="302.459693"/>
    </g>
    <g clip-path="url(#pc196a311bd)">
     <use style="fill:#3d3b6f;stroke:#3d3b6f;" x="360.297737" xlink:href="#C0_0_4ffa46142c" y="111.773777"/>
    </g>
    <g clip-path="url(#pc196a311bd)">
     <use style="fill:#3d3b6f;stroke:#3d3b6f;" x="80.754545" xlink:href="#C0_0_4ffa46142c" y="383.347337"/>
    </g>
    <g clip-path="url(#pc196a311bd)">
     <use style="fill:#c73634;stroke:#c73634;" x="158.892607" xlink:href="#C0_0_4ffa46142c" y="325.328451"/>
    </g>
    <g clip-path="url(#pc196a311bd)">
     <use style="fill:#3d3b6f;stroke:#3d3b6f;" x="136.743983" xlink:href="#C0_0_4ffa46142c" y="326.260141"/>
    </g>
    <g clip-path="url(#pc196a311bd)">
     <use style="fill:#3d3b6f;stroke:#3d3b6f;" x="114.9043" xlink:href="#C0_0_4ffa46142c" y="364.402971"/>
    </g>
    <g clip-path="url(#pc196a311bd)">
     <use style="fill:#c73634;stroke:#c73634;" x="290.120822" xlink:href="#C0_0_4ffa46142c" y="175.185173"/>
    </g>
    <g clip-path="url(#pc196a311bd)">
     <use style="fill:#c73634;stroke:#c73634;" x="291.285289" xlink:href="#C0_0_4ffa46142c" y="206.947337"/>
    </g>
    <g clip-path="url(#pc196a311bd)">
     <use style="fill:#c73634;stroke:#c73634;" x="292.449755" xlink:href="#C0_0_4ffa46142c" y="239.35886"/>
    </g>
    <g clip-path="url(#pc196a311bd)">
     <use style="fill:#3d3b6f;stroke:#3d3b6f;" x="159.843191" xlink:href="#C0_0_4ffa46142c" y="399.778963"/>
    </g>
    <g clip-path="url(#pc196a311bd)">
     <use style="fill:#c73634;stroke:#c73634;" x="158.559902" xlink:href="#C0_0_4ffa46142c" y="300.088118"/>
    </g>
    <g clip-path="url(#pc196a311bd)">
     <use style="fill:#c73634;stroke:#c73634;" x="174.19702" xlink:href="#C0_0_4ffa46142c" y="275.186581"/>
    </g>
    <g clip-path="url(#pc196a311bd)">
     <use style="fill:#c73634;stroke:#c73634;" x="293.70928" xlink:href="#C0_0_4ffa46142c" y="273.633764"/>
    </g>
    <g clip-path="url(#pc196a311bd)">
     <use style="fill:#c73634;stroke:#c73634;" x="289.241532" xlink:href="#C0_0_4ffa46142c" y="150.5942"/>
    </g>
    <g clip-path="url(#pc196a311bd)">
     <use style="fill:#3d3b6f;stroke:#3d3b6f;" x="154.94768" xlink:href="#C0_0_4ffa46142c" y="410.08402"/>
    </g>
    <g clip-path="url(#pc196a311bd)">
     <use style="fill:#3d3b6f;stroke:#3d3b6f;" x="149.481818" xlink:href="#C0_0_4ffa46142c" y="421.236069"/>
    </g>
    <g clip-path="url(#pc196a311bd)">
     <use style="fill:#3d3b6f;stroke:#3d3b6f;" x="406.852622" xlink:href="#C0_0_4ffa46142c" y="430.92"/>
    </g>
    <g clip-path="url(#pc196a311bd)">
     <use style="fill:#c73634;stroke:#c73634;" x="390.597624" xlink:href="#C0_0_4ffa46142c" y="188.595864"/>
    </g>
    <g clip-path="url(#pc196a311bd)">
     <use style="fill:#c73634;stroke:#c73634;" x="380.378838" xlink:href="#C0_0_4ffa46142c" y="159.628771"/>
    </g>
    <g clip-path="url(#pc196a311bd)">
     <use style="fill:#c73634;stroke:#c73634;" x="345.230969" xlink:href="#C0_0_4ffa46142c" y="124.930371"/>
    </g>
    <g clip-path="url(#pc196a311bd)">
     <use style="fill:#3d3b6f;stroke:#3d3b6f;" x="400.222293" xlink:href="#C0_0_4ffa46142c" y="168.239846"/>
    </g>
    <g clip-path="url(#pc196a311bd)">
     <use style="fill:#3d3b6f;stroke:#3d3b6f;" x="435.845455" xlink:href="#C0_0_4ffa46142c" y="429.98831"/>
    </g>
    <g clip-path="url(#pc196a311bd)">
     <use style="fill:#3d3b6f;stroke:#3d3b6f;" x="417.998227" xlink:href="#C0_0_4ffa46142c" y="178.940166"/>
    </g>
    <g clip-path="url(#pc196a311bd)">
     <use style="fill:#3d3b6f;stroke:#3d3b6f;" x="403.644398" xlink:href="#C0_0_4ffa46142c" y="189.838118"/>
    </g>
    <g clip-path="url(#pc196a311bd)">
     <use style="fill:#3d3b6f;stroke:#3d3b6f;" x="420.873746" xlink:href="#C0_0_4ffa46142c" y="430.609437"/>
    </g>
    <g clip-path="url(#pc196a311bd)">
     <use style="fill:#3d3b6f;stroke:#3d3b6f;" x="228.998227" xlink:href="#C0_0_4ffa46142c" y="176.145096"/>
    </g>
    <g clip-path="url(#pc196a311bd)">
     <use style="fill:#3d3b6f;stroke:#3d3b6f;" x="215.618748" xlink:href="#C0_0_4ffa46142c" y="208.528387"/>
    </g>
    <g clip-path="url(#pc196a311bd)">
     <use style="fill:#3d3b6f;stroke:#3d3b6f;" x="201.264919" xlink:href="#C0_0_4ffa46142c" y="239.979987"/>
    </g>
    <g clip-path="url(#pc196a311bd)">
     <use style="fill:#3d3b6f;stroke:#3d3b6f;" x="336.152886" xlink:href="#C0_0_4ffa46142c" y="88.340359"/>
    </g>
    <g clip-path="url(#pc196a311bd)">
     <use style="fill:#3d3b6f;stroke:#3d3b6f;" x="402.574991" xlink:href="#C0_0_4ffa46142c" y="139.216287"/>
    </g>
    <g clip-path="url(#pc196a311bd)">
     <use style="fill:#3d3b6f;stroke:#3d3b6f;" x="417.855639" xlink:href="#C0_0_4ffa46142c" y="168.013982"/>
    </g>
    <g clip-path="url(#pc196a311bd)">
     <use style="fill:#3d3b6f;stroke:#3d3b6f;" x="345.967673" xlink:href="#C0_0_4ffa46142c" y="81.451498"/>
    </g>
    <g clip-path="url(#pc196a311bd)">
     <use style="fill:#3d3b6f;stroke:#3d3b6f;" x="417.689287" xlink:href="#C0_0_4ffa46142c" y="154.659757"/>
    </g>
    <g clip-path="url(#pc196a311bd)">
     <use style="fill:#3d3b6f;stroke:#3d3b6f;" x="389.623274" xlink:href="#C0_0_4ffa46142c" y="150.904763"/>
    </g>
   </g>
  </g>
 </g>
 <defs>
  <clipPath id="pc196a311bd">
   <rect height="388.08" width="390.6" x="63" y="60.48"/>
  </clipPath>
 </defs>
</svg>
